<?xml version="1.0" standalone="no"?>
<!DOCTYPE svg PUBLIC "-//W3C//DTD SVG 20010904//EN"
 "http://www.w3.org/TR/2001/REC-SVG-20010904/DTD/svg10.dtd">
<svg version="1.0" xmlns="http://www.w3.org/2000/svg"
 width="512.000000pt" height="512.000000pt" viewBox="0 0 512.000000 512.000000"
 preserveAspectRatio="xMidYMid meet">
<metadata>
Created by potrace 1.14, written by Peter Selinger 2001-2017
</metadata>
<g transform="translate(0.000000,512.000000) scale(0.100000,-0.100000)"
fill="#000000" stroke="none">
<path d="M2369 5116 c-2 -2 -38 -7 -78 -10 -41 -4 -78 -9 -81 -11 -3 -2 -33
-7 -65 -10 -117 -14 -472 -111 -499 -136 -6 -5 -16 -9 -23 -9 -8 0 -42 -13
-76 -29 -34 -16 -83 -38 -108 -49 -25 -12 -85 -44 -133 -71 -48 -28 -89 -51
-91 -51 -8 0 -180 -123 -244 -173 -122 -97 -252 -222 -341 -327 -30 -36 -57
-67 -60 -70 -16 -14 -104 -136 -152 -210 -146 -223 -251 -455 -322 -705 -13
-49 -27 -101 -29 -115 -3 -14 -8 -36 -11 -50 -3 -14 -8 -36 -10 -50 -2 -14 -7
-36 -10 -50 -21 -96 -31 -228 -31 -435 0 -179 4 -253 20 -350 2 -16 7 -43 9
-60 7 -45 25 -134 36 -174 5 -20 11 -45 13 -56 21 -121 175 -501 255 -627 9
-15 34 -56 56 -92 42 -71 154 -223 226 -306 212 -249 496 -470 793 -617 113
-56 325 -143 350 -143 7 0 17 -3 21 -8 4 -4 11 -7 14 -8 4 0 27 -6 52 -13 25
-7 52 -15 60 -17 34 -8 181 -42 185 -43 3 0 20 -2 38 -5 155 -26 219 -30 417
-31 232 0 315 7 510 46 58 11 115 23 128 25 47 9 320 103 387 134 690 312
1175 841 1410 1535 33 98 68 227 80 294 3 19 7 37 9 40 2 3 7 29 11 56 4 28 9
61 11 75 19 114 26 485 12 605 -37 321 -116 597 -247 865 -88 179 -232 405
-316 496 -5 6 -30 35 -55 64 -248 292 -580 528 -985 701 -94 39 -388 124 -470
135 -16 2 -41 6 -55 9 -14 3 -45 8 -70 11 -25 3 -56 8 -70 11 -27 6 -466 14
-471 9z"/>
</g>
</svg>
